<svg width="480" height="480" viewBox="0 0 480 480" fill="none" xmlns="http://www.w3.org/2000/svg">
<rect width="480" height="480" fill="white"/>
<rect width="480" height="480" fill="white"/>
<g clip-path="url(#clip0)">
<path d="M288.516 342.885C268.628 332.122 274.009 279.71 274.009 279.71L244.293 281.582V279.71L241.018 280.646L237.742 279.71V281.582L208.026 279.71C208.026 279.71 213.408 332.122 193.519 342.885C173.63 353.649 56.4048 359.03 69.0399 480H237.742H244.059H412.761C425.63 359.264 308.405 353.649 288.516 342.885Z" fill="#FFAC9D"/>
<path d="M204.047 329.314C227.679 325.805 251.545 322.061 275.178 318.317C271.902 300.3 274.008 279.71 274.008 279.71L244.292 281.582V279.71L241.016 280.646L237.74 279.71V281.582L208.025 279.71C208.259 279.71 211.3 310.128 204.047 329.314Z" fill="#CC887F"/>
<path d="M294.601 341.95C284.774 336.568 281.03 320.891 279.86 306.384C271.203 309.66 253.654 311.532 242.423 311.532C229.086 311.532 212.005 308.724 202.412 304.278C201.476 319.253 197.966 336.334 187.437 341.95C167.548 352.947 54.0665 358.328 66.7016 480H236.807H243.125H412.997C425.632 358.328 314.724 352.947 294.601 341.95Z" fill="#D68950"/>
<path d="M241.019 370.261C268.395 370.261 292.729 361.136 309.576 346.863C303.492 345.225 298.579 343.587 295.771 342.183C285.944 336.801 282.2 321.125 281.03 306.618C272.373 309.893 254.824 311.765 243.593 311.765C230.256 311.765 213.175 308.957 203.581 304.512C202.646 319.487 199.136 336.567 188.607 342.183C185.565 343.821 179.949 345.459 172.93 347.331C189.776 361.37 214.111 370.261 241.019 370.261Z" fill="#FFA65B"/>
<path d="M114.434 465.727L133.854 447.477L152.105 465.727" stroke="#765E69" stroke-width="1.8333" stroke-miterlimit="10"/>
<path d="M331.57 465.025L353.565 447.477L371.815 465.727" stroke="#765E69" stroke-width="1.8333" stroke-miterlimit="10"/>
<path d="M295.305 465.025L316.129 447.477L334.38 465.727" stroke="#765E69" stroke-width="1.8333" stroke-miterlimit="10"/>
<path d="M260.439 465.727L279.626 447.477L297.877 465.727" stroke="#765E69" stroke-width="1.8333" stroke-miterlimit="10"/>
<path d="M222.066 465.259L243.125 447.477L263.013 465.259" stroke="#765E69" stroke-width="1.8333" stroke-miterlimit="10"/>
<path d="M187.436 465.727L206.622 447.477L224.873 465.727" stroke="#765E69" stroke-width="1.8333" stroke-miterlimit="10"/>
<path d="M149.297 465.259L170.355 447.477L189.776 465.025" stroke="#765E69" stroke-width="1.8333" stroke-miterlimit="10"/>
<path d="M114.434 447.71L133.854 429.459L152.105 447.71" stroke="#765E69" stroke-miterlimit="10"/>
<path d="M331.57 447.008L353.565 429.459L371.815 447.71" stroke="#765E69" stroke-miterlimit="10"/>
<path d="M295.305 447.008L316.129 429.459L334.38 447.71" stroke="#765E69" stroke-miterlimit="10"/>
<path d="M260.439 447.71L279.626 429.459L297.877 447.71" stroke="#765E69" stroke-miterlimit="10"/>
<path d="M222.066 447.242L243.125 429.459L263.013 447.242" stroke="#765E69" stroke-miterlimit="10"/>
<path d="M187.436 447.71L206.622 429.459L224.873 447.71" stroke="#765E69" stroke-miterlimit="10"/>
<path d="M149.297 447.242L170.355 429.459L189.776 447.008" stroke="#765E69" stroke-miterlimit="10"/>
<path d="M120.284 436.245C120.284 411.442 117.242 388.746 112.328 371.197C84.2503 389.448 60.852 421.036 66.9355 479.999H117.008C119.114 466.896 120.284 451.921 120.284 436.245Z" fill="#FFA65B"/>
<path d="M367.137 370.262C361.989 388.044 358.947 410.975 358.947 436.245C358.947 451.922 360.117 466.663 362.223 480H412.997C419.315 420.1 395.449 388.278 367.137 370.262Z" fill="#FFA65B"/>
<path d="M182.993 203.198C177.143 184.947 163.338 189.159 161.934 189.627C160.53 189.861 146.257 191.966 148.831 210.919C151.405 229.872 162.402 240.167 172.697 237.125C183.461 235.487 188.842 221.448 182.993 203.198Z" fill="#CC887F"/>
<path d="M299.75 203.198C305.599 184.947 319.404 189.159 320.808 189.627C322.212 189.861 336.485 191.966 333.911 210.919C331.338 229.872 320.34 240.167 310.045 237.125C299.516 235.487 293.9 221.448 299.75 203.198Z" fill="#CC887F"/>
<path d="M168.953 175.587C176.207 96.0329 236.575 100.479 242.424 101.181C248.04 100.479 308.642 96.0329 315.895 175.587C323.148 255.609 287.583 307.788 242.424 304.98C197.265 308.022 161.466 255.609 168.953 175.587Z" fill="#FFAC9D"/>
<path d="M165.914 119.9C165.914 119.9 149.535 130.429 161.234 166.697L168.254 207.644L174.104 208.813C174.104 208.813 171.764 146.808 191.652 132.769C211.541 118.73 165.914 119.9 165.914 119.9Z" fill="#D35450"/>
<path d="M291.094 125.749C291.094 125.749 212.71 171.376 170.593 135.108C128.476 98.8411 172.932 80.1224 190.481 82.4622C190.481 82.4622 184.632 62.5736 208.03 60.2338C231.428 57.894 226.749 81.2923 261.846 81.2923C296.944 81.2923 314.492 83.6321 310.983 112.88C310.983 112.88 328.531 102.351 334.381 122.239C340.23 142.128 318.002 207.643 318.002 207.643L315.662 218.173H309.813V162.017C309.813 162.017 287.584 169.036 291.094 125.749Z" fill="#FC6A5A"/>
<path d="M334.38 122.239C328.531 102.351 310.982 112.88 310.982 112.88C313.088 96.0332 307.94 88.0777 296.709 84.334C294.369 101.181 288.987 117.56 279.16 131.599C286.414 128.089 291.093 125.515 291.093 125.515C287.584 168.802 309.812 161.782 309.812 161.782V217.938H315.662L318.001 207.409C318.001 207.643 340.23 142.128 334.38 122.239Z" fill="#D35450"/>
<path d="M252.719 184.946C253.655 188.69 254.591 192.2 255.293 195.943C255.995 199.687 256.463 203.431 257.165 206.941C257.399 208.813 257.633 210.684 257.867 212.556C258.101 214.428 258.335 216.3 258.569 218.172C259.037 221.916 259.271 225.659 259.505 229.403V230.339L258.569 230.807C256.229 232.211 253.655 233.615 251.316 235.019C248.742 236.423 246.402 237.827 243.828 238.996C245.934 237.125 248.04 235.253 250.146 233.381C252.252 231.509 254.591 229.871 256.697 228.233L255.995 229.637C255.293 225.893 254.825 222.15 254.357 218.64C254.123 216.768 253.889 214.896 253.655 213.024C253.421 211.152 253.187 209.281 253.187 207.409C252.953 203.665 252.719 199.921 252.485 196.177C252.485 192.668 252.486 188.69 252.719 184.946Z" fill="#CC887F"/>
<path d="M273.076 253.27C258.569 267.309 234.235 266.373 215.75 253.971L273.076 253.27Z" fill="white"/>
<path d="M299.282 179.096C299.282 179.096 298.58 178.862 297.644 178.16C297.176 177.926 296.474 177.458 295.772 176.99C295.071 176.522 294.135 176.054 293.433 175.586C292.497 175.118 291.561 174.65 290.625 174.182C290.157 173.948 289.689 173.714 288.987 173.48C288.519 173.246 287.817 173.012 287.349 172.778C286.179 172.311 285.009 172.077 284.073 171.843C282.903 171.609 281.733 171.375 280.564 171.375L278.926 171.141C278.458 171.141 277.756 171.141 277.288 171.375C276.118 171.375 275.182 171.843 274.012 171.843C272.842 172.077 271.906 172.545 270.97 172.778L269.566 173.246L268.864 173.714C268.396 173.948 267.928 174.182 267.461 174.416C266.525 174.884 265.589 175.118 265.121 175.586C264.419 176.054 263.717 176.288 263.249 176.756C262.079 177.458 261.377 177.692 261.377 177.692C261.377 177.692 261.611 176.99 262.313 175.82C262.547 175.352 263.015 174.65 263.483 173.714C263.951 173.012 264.653 172.077 265.355 171.375C266.057 170.673 266.993 169.503 267.928 168.801C269.098 168.099 270.268 167.163 271.438 166.695C272.14 166.461 272.842 166.227 273.544 165.993C274.246 165.759 274.948 165.525 275.884 165.525C276.586 165.525 277.522 165.291 278.224 165.291C278.926 165.291 279.862 165.291 280.564 165.291C282.201 165.291 283.605 165.759 285.243 166.227C285.945 166.461 286.647 166.695 287.349 167.163C288.051 167.397 288.753 167.865 289.221 168.099C289.923 168.567 290.391 168.801 291.093 169.269C291.561 169.737 292.029 170.205 292.731 170.439C293.667 171.141 294.603 172.077 295.305 173.012C296.708 174.65 297.878 176.288 298.346 177.224C299.048 178.394 299.282 179.096 299.282 179.096Z" fill="#352C38"/>
<path d="M223.942 179.097C223.942 179.097 223.24 178.863 222.304 178.161C221.836 177.927 221.134 177.459 220.432 176.991C219.73 176.523 218.794 176.055 218.092 175.587C217.156 175.119 216.22 174.651 215.284 174.183C214.816 173.949 214.348 173.715 213.646 173.481C213.178 173.247 212.476 173.013 212.008 172.779C210.839 172.311 209.669 172.077 208.733 171.843C207.563 171.609 206.393 171.375 205.223 171.375L203.585 171.141C203.117 171.141 202.415 171.141 201.947 171.375C200.777 171.375 199.841 171.843 198.671 171.843C197.502 172.077 196.566 172.545 195.63 172.779L194.928 173.013L194.226 173.481C193.758 173.715 193.29 173.949 192.822 174.183C191.886 174.651 190.95 174.885 190.482 175.353C189.78 175.821 189.078 176.055 188.61 176.523C187.44 177.225 186.738 177.459 186.738 177.459C186.738 177.459 186.972 176.757 187.674 175.587C187.908 175.119 188.376 174.417 188.844 173.481C189.312 172.779 190.014 171.843 190.716 171.141C191.418 170.439 192.354 169.269 193.29 168.567C194.46 167.865 195.63 166.929 196.8 166.462C197.502 166.228 198.203 165.994 198.905 165.76C199.607 165.526 200.309 165.292 201.245 165.292C201.947 165.292 202.883 165.058 203.585 165.058C204.287 165.058 205.223 165.058 205.925 165.058C207.563 165.058 208.967 165.526 210.605 165.994C211.307 166.228 212.008 166.462 212.71 166.929C213.412 167.163 214.114 167.631 214.582 167.865C215.284 168.333 215.752 168.567 216.454 169.035C216.922 169.503 217.39 169.971 218.092 170.205C219.028 170.907 219.964 171.843 220.666 172.779C222.07 174.417 223.24 176.055 223.708 176.991C223.708 178.395 223.942 179.097 223.942 179.097Z" fill="#352C38"/>
<path d="M162.637 187.52L182.993 203.196L234.236 204.834C234.236 204.834 247.339 186.35 258.336 204.834H310.982L326.893 190.093" stroke="#765E69" stroke-width="1.4341" stroke-miterlimit="10"/>
<path d="M207.796 231.275C222.398 231.275 234.236 219.437 234.236 204.835C234.236 190.232 222.398 178.395 207.796 178.395C193.193 178.395 181.355 190.232 181.355 204.835C181.355 219.437 193.193 231.275 207.796 231.275Z" fill="#A9C7DB" stroke="#765E69" stroke-width="1.4341" stroke-miterlimit="10"/>
<path d="M284.776 231.275C299.379 231.275 311.216 219.437 311.216 204.835C311.216 190.232 299.379 178.395 284.776 178.395C270.174 178.395 258.336 190.232 258.336 204.835C258.336 219.437 270.174 231.275 284.776 231.275Z" fill="#A9C7DB" stroke="#765E69" stroke-width="1.4341" stroke-miterlimit="10"/>
<path d="M221.6 207.876C221.6 207.876 221.366 207.174 221.132 206.238C220.664 205.068 220.196 203.664 219.26 202.026C218.324 200.389 217.154 198.517 215.283 197.347C214.347 196.645 213.411 196.177 212.241 195.943C211.773 195.709 211.071 195.475 210.603 195.475C210.135 195.475 209.433 195.241 208.965 195.241C208.497 195.241 207.795 195.241 207.327 195.241C206.625 195.241 205.923 195.475 205.455 195.475C204.519 195.709 203.349 196.177 202.648 196.879C201.712 197.581 201.01 198.283 200.542 199.219C200.074 200.155 199.606 200.856 199.138 201.792C198.436 203.43 198.202 205.068 197.968 206.238C197.734 207.408 197.734 208.11 197.734 208.11C197.734 208.11 197.5 207.408 197.5 206.238C197.5 205.068 197.266 203.43 197.734 201.324C197.968 200.389 198.202 199.219 198.904 198.049C199.606 196.879 200.308 195.709 201.244 195.007C202.18 194.071 203.583 193.369 204.987 192.901C205.689 192.667 206.391 192.667 206.859 192.433C207.795 192.199 208.263 192.433 208.965 192.433C209.667 192.433 210.369 192.433 211.071 192.667C211.773 192.667 212.475 192.901 213.177 193.135C213.879 193.369 214.581 193.603 215.049 194.071C215.751 194.305 216.219 194.773 216.687 195.241C218.792 197.113 219.962 199.219 220.43 201.324C221.132 203.196 221.366 205.068 221.366 206.004C221.6 207.174 221.6 207.876 221.6 207.876Z" fill="#352C38"/>
<path d="M289.223 206.94C289.223 206.94 288.989 206.238 288.755 205.302C288.287 204.132 287.819 202.728 286.883 201.09C285.947 199.453 284.777 197.581 282.905 196.411C281.969 195.709 281.033 195.241 279.864 195.007C279.396 194.773 278.694 194.539 278.226 194.539C277.758 194.539 277.056 194.305 276.588 194.305C276.12 194.305 275.418 194.305 274.95 194.305C274.248 194.305 273.546 194.539 273.078 194.539C272.142 194.773 270.972 195.241 270.27 195.943C269.334 196.645 268.632 197.347 268.164 198.283C267.696 199.219 267.228 199.921 266.76 200.856C266.058 202.494 265.825 204.132 265.591 205.302C265.357 206.472 265.357 207.174 265.357 207.174C265.357 207.174 265.123 206.238 264.889 205.068C264.889 203.898 264.655 202.26 265.123 200.155C265.357 199.219 265.591 198.049 266.292 196.879C266.994 195.709 267.696 194.539 268.632 193.837C269.568 192.901 270.972 192.199 272.376 191.731C273.078 191.497 273.78 191.497 274.248 191.263C275.184 191.029 275.652 191.263 276.354 191.263C277.056 191.263 277.758 191.263 278.46 191.497C279.162 191.497 279.864 191.731 280.565 191.965C281.267 192.199 281.969 192.433 282.437 192.901C283.139 193.135 283.607 193.603 284.075 194.071C286.181 195.943 287.351 198.049 287.819 200.155C288.521 202.026 288.755 203.898 288.755 204.834C289.223 206.238 289.223 206.94 289.223 206.94Z" fill="#352C38"/>
</g>
<defs>
<clipPath id="clip0">
<rect width="347.933" height="420" fill="white" transform="translate(66 60)"/>
</clipPath>
</defs>
</svg>
