<svg width="480" height="480" viewBox="0 0 480 480" fill="none" xmlns="http://www.w3.org/2000/svg">
<rect width="480" height="480" fill="white"/>
<rect width="480" height="480" fill="white"/>
<path d="M173.289 209.72C173.289 209.72 152.962 205.203 149.951 222.519C146.939 239.835 158.985 243.599 158.985 243.599C158.985 243.599 140.916 223.272 128.118 237.576C115.319 251.881 136.399 263.926 136.399 263.926C136.399 263.926 113.061 251.128 108.543 266.938C104.026 282.748 122.848 292.535 122.848 292.535C122.848 292.535 102.521 291.029 103.273 300.064C104.026 309.098 123.601 301.57 123.601 301.57C123.601 301.57 94.9919 306.84 99.5091 329.425C104.026 352.011 126.612 339.213 126.612 339.213C126.612 339.213 109.296 348.247 113.813 376.856C118.331 405.464 247.572 347.494 247.572 347.494L249.83 269.698L173.289 209.72Z" fill="#352C38"/>
<path d="M322.353 209.72C322.353 209.72 342.681 205.203 345.692 222.519C348.704 239.835 336.658 243.599 336.658 243.599C336.658 243.599 354.726 223.272 367.525 237.576C380.324 251.881 359.244 263.926 359.244 263.926C359.244 263.926 382.582 251.128 387.099 266.938C391.617 282.748 372.795 292.535 372.795 292.535C372.795 292.535 393.122 291.029 392.369 300.064C391.617 309.098 372.042 301.57 372.042 301.57C372.042 301.57 400.651 306.84 396.134 329.425C391.617 352.011 369.031 339.213 369.031 339.213C369.031 339.213 386.347 348.247 381.829 376.856C377.312 405.464 248.071 347.494 248.071 347.494L245.812 269.698L322.353 209.72Z" fill="#352C38"/>
<path d="M173.289 209.72C173.289 209.72 152.962 205.203 149.951 222.519C146.939 239.835 158.985 243.599 158.985 243.599C158.985 243.599 140.916 223.272 128.118 237.576C115.319 251.881 136.399 263.926 136.399 263.926C136.399 263.926 113.061 251.128 108.543 266.938C104.026 282.748 122.848 292.535 122.848 292.535C122.848 292.535 102.521 291.029 103.273 300.064C104.026 309.098 123.601 301.57 123.601 301.57C123.601 301.57 94.9919 306.84 99.5091 329.425C104.026 352.011 126.612 339.213 126.612 339.213C126.612 339.213 109.296 348.247 113.813 376.856C118.331 405.464 247.572 347.494 247.572 347.494L249.83 269.698L173.289 209.72Z" fill="#2A242D"/>
<path d="M322.353 209.72C322.353 209.72 342.681 205.203 345.692 222.519C348.704 239.835 336.658 243.599 336.658 243.599C336.658 243.599 354.726 223.272 367.525 237.576C380.324 251.881 359.244 263.926 359.244 263.926C359.244 263.926 382.582 251.128 387.099 266.938C391.617 282.748 372.795 292.535 372.795 292.535C372.795 292.535 393.122 291.029 392.369 300.064C391.617 309.098 372.042 301.57 372.042 301.57C372.042 301.57 400.651 306.84 396.134 329.425C391.617 352.011 369.031 339.213 369.031 339.213C369.031 339.213 386.347 348.247 381.829 376.856C377.312 405.464 248.071 347.494 248.071 347.494L245.812 269.698L322.353 209.72Z" fill="#2A242D"/>
<path d="M295.003 332.941C273.672 321.397 279.444 265.184 279.444 265.184L247.573 267.191V265.184L244.06 266.187L240.546 265.184V267.191L208.675 265.184C208.675 265.184 214.447 321.397 193.116 332.941C171.785 344.485 46.0573 350.257 59.6088 480H240.546H247.322H428.26C442.062 350.257 316.083 344.485 295.003 332.941Z" fill="#965450"/>
<path d="M204.408 318.386C229.755 314.621 255.352 310.606 280.698 306.591C277.185 287.268 279.443 265.184 279.443 265.184L247.572 267.191V265.184L244.059 266.187L240.546 265.184V267.191L208.674 265.184C208.925 265.184 212.188 297.808 204.408 318.386Z" fill="#76413B"/>
<path d="M296.007 330.934C287.475 326.417 283.208 315.124 281.201 303.078C269.406 305.588 256.607 307.093 243.307 307.093C230.257 307.093 217.71 305.588 206.166 303.078C204.158 315.124 199.641 326.166 191.359 330.683C169.526 342.478 39.7833 348.25 53.5858 479.75H240.044H247.071H433.53C447.583 348.501 317.84 342.729 296.007 330.934Z" fill="#FC6A5A"/>
<path opacity="0.3" d="M65.8828 479.998H433.53C438.047 436.834 427.256 407.222 409.689 386.393C294.502 414.75 180.82 450.135 65.8828 479.998Z" fill="#2A242D"/>
<path d="M181.819 183.119C175.545 163.544 160.739 168.062 159.233 168.563C157.728 168.814 142.419 171.073 145.18 191.4C147.94 211.727 159.735 222.769 170.777 219.507C182.07 217.75 188.093 202.693 181.819 183.119Z" fill="#76413B"/>
<path d="M307.043 183.119C313.317 163.544 328.123 168.062 329.629 168.563C331.135 168.814 346.443 171.073 343.683 191.4C340.922 211.727 329.127 222.769 318.085 219.507C306.541 217.75 300.77 202.693 307.043 183.119Z" fill="#76413B"/>
<path d="M166.509 153.508C174.289 68.1833 239.286 72.9514 245.309 73.7043C251.332 72.9514 316.329 68.1833 324.108 153.508C331.888 239.334 293.743 295.296 245.309 292.285C196.875 295.547 158.73 239.334 166.509 153.508Z" fill="#965450"/>
<path d="M256.604 193.66C257.608 195.668 258.612 197.675 259.365 199.683C260.117 201.691 260.619 203.698 261.372 205.957C261.623 206.961 261.874 207.965 262.125 208.968C262.376 209.972 262.627 210.976 262.878 212.231C263.38 214.238 263.631 216.497 263.882 218.505V219.508L263.38 220.01C261.623 221.516 259.867 223.273 258.11 224.778C256.353 226.284 254.346 227.79 252.338 229.045C253.593 227.037 255.098 225.029 256.604 223.273C258.11 221.516 259.616 219.508 261.121 217.752L260.619 219.257C259.867 217.25 259.365 215.242 258.863 212.984C258.612 211.98 258.361 210.976 258.11 209.721C257.859 208.717 257.608 207.714 257.608 206.459C257.357 204.451 257.106 202.193 256.855 199.934C256.353 198.177 256.353 195.919 256.604 193.66Z" fill="#76413B"/>
<path d="M278.437 244.352C262.878 259.409 236.778 258.405 216.953 245.104L278.437 244.352Z" fill="white"/>
<path d="M306.54 164.801C306.54 164.801 305.787 164.55 304.784 163.798C304.282 163.547 303.529 163.045 302.776 162.543C302.023 162.041 301.019 161.539 300.266 161.037C299.263 160.535 298.259 160.033 297.255 159.531C296.753 159.28 296.251 159.029 295.498 158.778C294.996 158.528 294.244 158.277 293.742 158.026C292.487 157.524 291.232 157.273 290.228 157.022C288.974 156.771 287.719 156.52 286.464 156.52L284.707 156.269C284.205 156.269 283.453 156.269 282.951 156.52C281.696 156.52 280.692 157.022 279.437 157.022C278.183 157.273 277.179 157.775 276.175 158.026L275.422 158.277L274.669 158.778C274.167 159.029 273.665 159.28 273.163 159.531C272.16 160.033 271.156 160.284 270.654 160.786C269.901 161.288 269.148 161.539 268.646 162.041C267.392 162.794 266.639 163.045 266.639 163.045C266.639 163.045 266.89 162.292 267.642 161.037C267.893 160.535 268.395 159.782 268.897 158.778C269.399 158.026 270.152 157.022 270.905 156.269C271.658 155.516 272.662 154.261 273.665 153.508C274.92 152.756 276.175 151.752 277.43 151.25C278.183 150.999 278.935 150.748 279.688 150.497C280.441 150.246 281.194 149.995 282.198 149.995C282.951 149.995 283.954 149.744 284.707 149.744C285.46 149.744 286.464 149.744 287.217 149.744C288.974 149.744 290.479 150.246 292.236 150.748C292.989 150.999 293.742 151.25 294.495 151.752C295.247 152.003 296 152.505 296.502 152.756C297.255 153.257 297.757 153.508 298.51 154.01C299.012 154.512 299.514 155.014 300.266 155.265C301.27 156.018 302.274 157.022 303.027 158.026C304.533 159.782 305.787 161.539 306.289 162.543C306.289 164.049 306.54 164.801 306.54 164.801Z" fill="#352C38"/>
<path d="M225.736 164.801C225.736 164.801 224.983 164.55 223.979 163.798C223.477 163.547 222.724 163.045 221.971 162.543C221.218 162.041 220.215 161.539 219.462 161.037C218.458 160.535 217.454 160.033 216.45 159.531C215.948 159.28 215.447 159.029 214.694 158.778C214.192 158.528 213.439 158.277 212.937 158.026C211.682 157.524 210.427 157.273 209.424 157.022C208.169 156.771 206.914 156.52 205.659 156.52L203.903 156.269C203.401 156.269 202.648 156.269 202.146 156.52C200.891 156.52 199.887 157.022 198.633 157.022C197.378 157.273 196.374 157.775 195.37 158.026L194.617 158.277L193.865 158.778C193.363 159.029 192.861 159.28 192.359 159.531C191.355 160.033 190.351 160.284 189.849 160.786C189.096 161.288 188.344 161.539 187.842 162.041C186.587 162.794 185.834 163.045 185.834 163.045C185.834 163.045 186.085 162.292 186.838 161.037C187.089 160.535 187.591 159.782 188.093 158.778C188.594 158.026 189.347 157.022 190.1 156.269C190.853 155.516 191.857 154.261 192.861 153.508C194.115 152.756 195.37 151.752 196.625 151.25C197.378 150.999 198.131 150.748 198.884 150.497C199.636 150.246 200.389 149.995 201.393 149.995C202.146 149.995 203.15 149.744 203.903 149.744C204.656 149.744 205.659 149.744 206.412 149.744C208.169 149.744 209.675 150.246 211.431 150.748C212.184 150.999 212.937 151.25 213.69 151.752C214.443 152.003 215.196 152.505 215.697 152.756C216.45 153.257 216.952 153.508 217.705 154.01C218.207 154.512 218.709 155.014 219.462 155.265C220.466 156.018 221.469 157.022 222.222 158.026C223.728 159.782 224.983 161.539 225.485 162.543C225.485 164.049 225.736 164.801 225.736 164.801Z" fill="#352C38"/>
<path d="M223.225 195.671C223.225 195.671 222.974 194.918 222.724 193.914C222.222 192.659 221.72 191.153 220.716 189.397C219.712 187.64 218.457 185.632 216.45 184.378C215.446 183.625 214.442 183.123 213.187 182.872C212.685 182.621 211.933 182.37 211.431 182.37C210.929 182.37 210.176 182.119 209.674 182.119C209.172 182.119 208.419 182.119 207.917 182.119C207.164 182.119 206.412 182.37 205.91 182.37C204.906 182.621 203.651 183.123 202.898 183.876C201.894 184.629 201.141 185.381 200.64 186.385C200.138 187.389 199.636 188.142 199.134 189.146C198.381 190.902 198.13 192.659 197.879 193.914C197.628 195.169 197.628 195.922 197.628 195.922C197.628 195.922 197.377 195.169 197.377 193.914C197.377 192.659 197.126 190.902 197.628 188.644C197.879 187.64 198.13 186.385 198.883 185.131C199.636 183.876 200.389 182.621 201.392 181.868C202.396 180.864 203.902 180.111 205.408 179.61C206.161 179.359 206.913 179.359 207.415 179.108C208.419 178.857 208.921 179.108 209.674 179.108C210.427 179.108 211.18 179.108 211.932 179.359C212.685 179.359 213.438 179.61 214.191 179.86C214.944 180.111 215.697 180.362 216.199 180.864C216.952 181.115 217.453 181.617 217.955 182.119C220.214 184.127 221.469 186.385 221.971 188.644C222.724 190.651 222.974 192.659 222.974 193.663C223.225 194.918 223.225 195.671 223.225 195.671Z" fill="#352C38"/>
<path d="M295.751 194.665C295.751 194.665 295.5 193.912 295.249 192.908C294.747 191.653 294.245 190.148 293.241 188.391C292.237 186.634 290.983 184.627 288.975 183.372C287.971 182.619 286.967 182.117 285.713 181.866C285.211 181.615 284.458 181.364 283.956 181.364C283.454 181.364 282.701 181.113 282.199 181.113C281.697 181.113 280.945 181.113 280.443 181.113C279.69 181.113 278.937 181.364 278.435 181.364C277.431 181.615 276.176 182.117 275.424 182.87C274.42 183.623 273.667 184.376 273.165 185.379C272.663 186.383 272.161 187.136 271.659 188.14C270.906 189.897 270.655 191.653 270.404 192.908C270.154 194.163 270.154 194.916 270.154 194.916C270.154 194.916 269.903 194.163 269.903 192.908C269.903 191.653 269.652 189.897 270.154 187.638C270.404 186.634 270.655 185.379 271.408 184.125C272.161 182.87 272.914 181.615 273.918 180.862C274.922 179.858 276.427 179.106 277.933 178.604C278.686 178.353 279.439 178.353 279.941 178.102C280.945 177.851 281.446 178.102 282.199 178.102C282.952 178.102 283.705 178.102 284.458 178.353C285.211 178.353 285.964 178.604 286.716 178.855C287.469 179.106 288.222 179.357 288.724 179.858C289.477 180.109 289.979 180.611 290.481 181.113C292.739 183.121 293.994 185.379 294.496 187.638C295.249 189.646 295.5 191.653 295.5 192.657C295.751 193.912 295.751 194.665 295.751 194.665Z" fill="#352C38"/>
<path d="M247.822 73.706C247.822 73.706 251.837 125.904 172.536 147.988C172.536 147.988 174.795 174.338 168.019 199.434C168.019 199.434 142.421 162.544 154.467 118.627C166.513 74.7098 227.746 39.5763 247.822 73.706Z" fill="#352C38"/>
<path d="M241.551 73.706C241.551 73.706 240.045 125.904 319.346 147.988C319.346 147.988 315.582 181.114 322.358 206.21C322.358 206.21 349.461 162.293 337.415 118.627C325.369 74.7098 261.627 39.5763 241.551 73.706Z" fill="#352C38"/>
<path d="M184.582 144.226C173.038 136.195 162.749 125.655 155.722 114.362C155.22 115.868 154.718 117.123 154.467 118.629C142.421 162.545 168.019 199.436 168.019 199.436C174.795 174.591 172.536 147.99 172.536 147.99C176.802 146.735 180.817 145.481 184.582 144.226Z" fill="#2A242D"/>
</svg>
