<svg width="480" height="481" viewBox="0 0 480 481" fill="none" xmlns="http://www.w3.org/2000/svg">
<rect width="480" height="480" fill="white"/>
<rect width="480" height="480" fill="white"/>
<path d="M288.849 342.496C268.876 331.687 274.28 279.053 274.28 279.053L244.439 280.933V279.053L241.149 279.993L237.859 279.053V280.933L208.017 279.053C208.017 279.053 213.422 331.687 193.449 342.496C173.476 353.305 55.7537 358.709 68.4423 480.191H237.859H244.204H413.621C426.544 358.709 308.587 353.305 288.849 342.496Z" fill="#FFAC9D"/>
<path d="M204.021 328.867C227.754 325.343 251.721 321.583 275.454 317.824C272.164 299.731 274.279 279.053 274.279 279.053L244.437 280.933V279.053L241.147 279.993L237.858 279.053V280.933L208.016 279.053C208.251 279.053 211.306 309.599 204.021 328.867Z" fill="#CC887F"/>
<path d="M301.535 344.846C287.672 359.179 265.819 368.343 241.147 368.343C216.709 368.343 194.857 359.179 180.758 344.846C144.337 354.95 54.8117 372.808 66.0905 480.426H237.857H244.437H416.203C427.482 372.808 337.957 354.95 301.535 344.846Z" fill="#6F96BD"/>
<path d="M212.48 272.004C212.48 272.004 182.404 264.485 156.086 275.529C129.769 286.573 133.529 212.085 135.409 209.266C137.523 206.681 185.928 177.074 185.928 177.074L212.48 272.004Z" fill="#D3B9A3"/>
<path d="M264.646 270.829C264.646 270.829 295.193 265.189 320.805 277.878C346.418 290.567 347.123 215.845 345.243 213.025C343.363 210.205 296.603 178.014 296.603 178.014L264.646 270.829Z" fill="#D3B9A3"/>
<path d="M182.875 202.213C177.001 183.885 163.137 188.115 161.727 188.585C160.318 188.82 145.984 190.935 148.569 209.968C151.154 229 162.197 239.339 172.536 236.285C183.11 234.64 188.75 220.541 182.875 202.213Z" fill="#CC887F"/>
<path d="M300.127 202.213C306.001 183.885 319.865 188.115 321.275 188.585C322.685 188.82 337.018 190.935 334.433 209.968C331.849 229 320.805 239.339 310.466 236.285C299.892 234.64 294.253 220.541 300.127 202.213Z" fill="#CC887F"/>
<path d="M168.539 174.489C175.823 94.5972 236.446 99.0617 242.321 99.7666C247.96 99.0617 308.819 94.5972 316.103 174.489C323.387 254.85 287.671 307.25 242.321 304.43C196.971 307.484 161.254 254.85 168.539 174.489Z" fill="#FFAC9D"/>
<path d="M160.082 193.518L180.525 209.261L229.87 211.611C229.87 211.611 244.438 195.632 259.946 210.906L305.297 211.611L324.799 195.867" stroke="#765E69" stroke-width="1.4341" stroke-miterlimit="10"/>
<path d="M210.521 233.699C223.884 231.032 232.555 218.037 229.889 204.674C227.222 191.311 214.227 182.64 200.864 185.306C187.501 187.973 178.83 200.968 181.496 214.331C184.163 227.694 197.158 236.365 210.521 233.699Z" fill="#A9C7DB" stroke="#765E69" stroke-width="1.3386" stroke-miterlimit="10"/>
<path d="M305.114 218.038C309.881 205.273 303.397 191.061 290.632 186.295C277.867 181.528 263.655 188.013 258.888 200.778C254.122 213.543 260.606 227.755 273.371 232.521C286.136 237.287 300.348 230.803 305.114 218.038Z" fill="#A9C7DB" stroke="#765E69" stroke-width="1.3386" stroke-miterlimit="10"/>
<path d="M252.901 214.199C253.841 216.079 254.781 217.959 255.486 219.839C256.19 221.718 256.66 223.598 257.365 225.713C257.6 226.653 257.835 227.593 258.07 228.533C258.305 229.473 258.54 230.412 258.775 231.587C259.245 233.467 259.48 235.582 259.715 237.462V238.402L259.245 238.872C257.6 240.281 255.955 241.926 254.311 243.336C252.666 244.746 250.786 246.156 248.906 247.331C250.081 245.451 251.491 243.571 252.901 241.926C254.311 240.281 255.721 238.402 257.13 236.757L256.66 238.167C255.955 236.287 255.485 234.407 255.016 232.292C254.781 231.352 254.546 230.412 254.311 229.238C254.076 228.298 253.841 227.358 253.841 226.183C253.606 224.303 253.371 222.188 253.136 220.074C252.666 218.194 252.666 216.314 252.901 214.199Z" fill="#CC887F"/>
<path d="M273.344 261.666C258.776 275.765 234.338 274.825 215.775 262.371L273.344 261.666Z" fill="white"/>
<path d="M299.658 186.942C299.658 186.942 298.953 186.707 298.013 186.002C297.543 185.767 296.838 185.297 296.133 184.827C295.428 184.358 294.488 183.888 293.784 183.418C292.844 182.948 291.904 182.478 290.964 182.008C290.494 181.773 290.024 181.538 289.319 181.303C288.849 181.068 288.144 180.833 287.674 180.598C286.499 180.128 285.324 179.893 284.385 179.658C283.21 179.423 282.035 179.188 280.86 179.188L279.215 178.953C278.745 178.953 278.04 178.953 277.57 179.188C276.395 179.188 275.455 179.658 274.281 179.658C273.106 179.893 272.166 180.363 271.226 180.598L270.521 180.833L269.816 181.303C269.346 181.538 268.876 181.773 268.406 182.008C267.466 182.478 266.526 182.713 266.056 183.183C265.352 183.653 264.647 183.888 264.177 184.358C263.002 185.062 262.297 185.297 262.297 185.297C262.297 185.297 262.532 184.592 263.237 183.418C263.472 182.948 263.942 182.243 264.412 181.303C264.882 180.598 265.587 179.658 266.291 178.953C266.996 178.248 267.936 177.073 268.876 176.368C270.051 175.663 271.226 174.724 272.401 174.254C273.106 174.019 273.811 173.784 274.516 173.549C275.221 173.314 275.925 173.079 276.865 173.079C277.57 173.079 278.51 172.844 279.215 172.844C279.92 172.844 280.86 172.844 281.565 172.844C283.21 172.844 284.62 173.314 286.264 173.784C286.969 174.019 287.674 174.254 288.379 174.724C289.084 174.959 289.789 175.428 290.259 175.663C290.964 176.133 291.434 176.368 292.139 176.838C292.609 177.308 293.079 177.778 293.784 178.013C294.723 178.718 295.663 179.658 296.368 180.598C297.778 182.243 298.953 183.888 299.423 184.827C299.423 186.237 299.658 186.942 299.658 186.942Z" fill="#352C38"/>
<path d="M223.998 186.942C223.998 186.942 223.293 186.707 222.353 186.002C221.883 185.767 221.178 185.297 220.473 184.827C219.768 184.358 218.828 183.888 218.123 183.418C217.183 182.948 216.244 182.478 215.304 182.008C214.834 181.773 214.364 181.538 213.659 181.303C213.189 181.068 212.484 180.833 212.014 180.598C210.839 180.128 209.664 179.893 208.724 179.658C207.55 179.423 206.375 179.188 205.2 179.188L203.555 178.953C203.085 178.953 202.38 178.953 201.91 179.188C200.735 179.188 199.795 179.658 198.62 179.658C197.446 179.893 196.506 180.363 195.566 180.598L194.861 180.833L194.156 181.303C193.686 181.538 193.216 181.773 192.746 182.008C191.806 182.478 190.866 182.713 190.396 183.183C189.691 183.653 188.986 183.888 188.517 184.358C187.342 185.062 186.637 185.297 186.637 185.297C186.637 185.297 186.872 184.592 187.577 183.418C187.812 182.948 188.282 182.243 188.752 181.303C189.221 180.598 189.926 179.658 190.631 178.953C191.336 178.248 192.276 177.073 193.216 176.368C194.391 175.663 195.566 174.724 196.741 174.254C197.446 174.019 198.15 173.784 198.855 173.549C199.56 173.314 200.265 173.079 201.205 173.079C201.91 173.079 202.85 172.844 203.555 172.844C204.26 172.844 205.2 172.844 205.905 172.844C207.549 172.844 208.959 173.314 210.604 173.784C211.309 174.019 212.014 174.254 212.719 174.724C213.424 174.959 214.129 175.428 214.599 175.663C215.304 176.133 215.774 176.368 216.479 176.838C216.948 177.308 217.418 177.778 218.123 178.013C219.063 178.718 220.003 179.658 220.708 180.598C222.118 182.243 223.293 183.888 223.763 184.827C223.763 186.237 223.998 186.942 223.998 186.942Z" fill="#352C38"/>
<path d="M221.646 216.08C221.646 216.08 221.411 215.375 221.176 214.435C220.706 213.26 220.236 211.85 219.296 210.205C218.356 208.56 217.181 206.681 215.302 205.506C214.362 204.801 213.422 204.331 212.247 204.096C211.777 203.861 211.072 203.626 210.602 203.626C210.132 203.626 209.427 203.391 208.957 203.391C208.487 203.391 207.782 203.391 207.312 203.391C206.608 203.391 205.903 203.626 205.433 203.626C204.493 203.861 203.318 204.331 202.613 205.036C201.673 205.741 200.968 206.446 200.498 207.385C200.028 208.325 199.558 209.03 199.088 209.97C198.383 211.615 198.148 213.26 197.913 214.435C197.678 215.61 197.678 216.315 197.678 216.315C197.678 216.315 197.444 215.61 197.444 214.435C197.444 213.26 197.209 211.615 197.678 209.5C197.913 208.56 198.148 207.385 198.853 206.211C199.558 205.036 200.263 203.861 201.203 203.156C202.143 202.216 203.553 201.511 204.963 201.041C205.668 200.806 206.373 200.806 206.843 200.571C207.782 200.336 208.252 200.571 208.957 200.571C209.662 200.571 210.367 200.571 211.072 200.806C211.777 200.806 212.482 201.041 213.187 201.276C213.892 201.511 214.597 201.746 215.067 202.216C215.772 202.451 216.242 202.921 216.711 203.391C218.826 205.271 220.001 207.386 220.471 209.5C221.176 211.38 221.411 213.26 221.411 214.2C221.646 215.375 221.646 216.08 221.646 216.08Z" fill="#352C38"/>
<path d="M289.556 214.906C289.556 214.906 289.321 214.201 289.086 213.261C288.616 212.086 288.146 210.676 287.206 209.031C286.266 207.387 285.092 205.507 283.212 204.332C282.272 203.627 281.332 203.157 280.157 202.922C279.687 202.687 278.982 202.452 278.512 202.452C278.042 202.452 277.337 202.217 276.867 202.217C276.398 202.217 275.693 202.217 275.223 202.217C274.518 202.217 273.813 202.452 273.343 202.452C272.403 202.687 271.228 203.157 270.523 203.862C269.583 204.567 268.878 205.272 268.408 206.212C267.938 207.152 267.468 207.856 266.998 208.796C266.294 210.441 266.059 212.086 265.824 213.261C265.589 214.436 265.589 215.141 265.589 215.141C265.589 215.141 265.354 214.436 265.354 213.261C265.354 212.086 265.119 210.441 265.589 208.326C265.824 207.387 266.059 206.212 266.763 205.037C267.468 203.862 268.173 202.687 269.113 201.982C270.053 201.042 271.463 200.337 272.873 199.867C273.578 199.632 274.283 199.632 274.753 199.397C275.693 199.162 276.163 199.397 276.867 199.397C277.572 199.397 278.277 199.397 278.982 199.632C279.687 199.632 280.392 199.867 281.097 200.102C281.802 200.337 282.507 200.572 282.977 201.042C283.682 201.277 284.152 201.747 284.622 202.217C286.736 204.097 287.911 206.212 288.381 208.326C289.086 210.206 289.321 212.086 289.321 213.026C289.556 214.201 289.556 214.906 289.556 214.906Z" fill="#352C38"/>
<path d="M171.598 90.3677C171.598 90.3677 194.39 61.4658 239.74 80.2638C265.588 63.8155 285.091 71.5697 303.889 85.6682L243.5 116.215L171.598 90.3677Z" fill="#FDDEC0"/>
<path d="M88.8856 258.845C88.8856 258.845 88.6506 258.14 88.1807 256.495C87.7107 255.085 87.0058 252.971 86.3009 250.151C86.0659 248.741 85.5959 247.096 85.361 245.451C85.126 243.807 84.891 241.927 84.4211 239.812C84.1861 235.818 83.7161 231.118 84.656 226.184C85.361 221.249 86.7708 215.845 89.5905 210.675C90.0604 209.265 91.0004 208.09 91.7053 206.916C92.4102 205.741 93.3501 204.331 94.29 203.156C95.2299 201.981 96.1698 200.806 97.1097 199.631C98.2846 198.456 99.4595 197.517 100.399 196.342C101.574 195.167 102.749 194.227 103.924 193.287C105.099 192.347 106.509 191.172 107.684 190.232C110.503 188.588 113.088 186.473 116.143 185.063C118.962 183.653 122.017 182.008 124.837 180.598C127.421 178.954 130.006 177.309 132.121 175.194C136.82 170.964 140.11 165.795 142.695 160.156C145.28 154.516 146.924 148.407 148.569 142.532C149.979 136.658 151.389 130.784 152.799 125.379C154.209 119.975 156.088 114.805 158.203 110.106C160.318 105.641 162.903 101.647 165.487 98.5921C168.072 95.5374 170.892 93.1877 173.242 91.3079C175.591 89.6631 177.471 88.4882 178.881 87.7833C180.291 87.0783 180.996 86.6084 180.996 86.6084C180.996 86.6084 180.291 87.0783 179.116 88.0182C177.706 88.7232 176.061 90.133 173.947 92.0128C171.832 93.8926 169.482 96.4773 167.132 99.532C164.782 102.822 162.668 106.581 161.023 111.046C159.143 115.51 157.733 120.68 156.558 126.084C155.383 131.489 154.209 137.363 152.799 143.472C151.389 149.582 149.744 155.926 147.159 162.035C144.575 168.145 140.58 174.019 135.411 178.719C132.826 181.068 130.006 182.948 126.952 184.828C124.132 186.238 121.077 187.883 118.257 189.292L116.143 190.467C115.438 190.937 114.733 191.407 114.263 191.642C112.853 192.347 111.678 193.287 110.268 193.992C108.858 194.932 107.919 195.872 106.509 196.812C105.334 197.752 104.159 198.691 102.984 199.631C101.809 200.571 100.869 201.746 99.6944 202.686C98.7545 203.861 97.8146 204.801 96.8747 205.976C95.9348 206.916 94.9949 208.09 94.29 209.265C93.5851 210.44 92.6452 211.615 92.1752 212.79C91.4703 213.965 91.0003 215.14 90.2954 216.315C89.8255 217.489 89.3555 218.664 88.8856 219.839C88.4156 221.014 88.1807 222.189 87.7107 223.364C87.4757 224.539 87.0058 225.714 86.7708 226.888C86.5358 228.063 86.3008 229.238 86.0659 230.413C86.0659 231.588 85.8309 232.763 85.8309 233.703C85.5959 235.818 85.8309 237.932 85.5959 240.047C85.5959 241.927 85.8309 243.807 86.0659 245.686C86.3008 247.331 86.5358 248.976 86.7708 250.386C87.2408 253.206 87.7107 255.32 87.9457 256.965C88.6506 258.14 88.8856 258.845 88.8856 258.845Z" fill="#FDDEC0"/>
<path d="M244.906 126.322C244.906 126.322 244.201 126.087 242.791 125.382C241.381 124.912 239.267 124.207 236.447 123.738C233.627 123.268 230.338 122.798 226.578 123.503C222.818 123.972 218.824 125.852 216.004 129.142C215.534 129.612 215.299 130.082 214.829 130.317C214.594 130.787 214.124 131.257 213.889 131.727C213.654 132.197 213.184 132.667 212.949 133.137C212.714 133.606 212.48 134.311 212.245 134.781C212.01 135.251 211.775 135.956 211.54 136.426L211.305 137.131L211.07 138.071C210.6 139.481 210.365 140.656 209.895 142.066C208.72 147.235 208.015 153.109 207.075 158.984C206.37 165.093 205.43 171.672 202.846 178.017C200.496 184.361 196.501 190.47 191.802 195.405C190.627 196.58 189.452 197.755 188.042 198.93C186.867 200.104 185.457 201.279 184.283 202.219C182.873 203.159 181.698 204.334 180.288 205.274C178.878 206.214 177.468 207.154 176.293 208.094C173.474 209.973 171.124 211.383 169.714 213.498C168.069 215.378 166.894 217.962 166.424 220.547C165.485 225.717 166.424 231.591 167.599 236.76C169.009 242.165 170.419 247.099 171.829 251.799C173.239 256.498 174.414 260.963 174.884 264.957C175.588 268.952 175.588 272.477 175.119 275.531C174.649 278.586 173.709 280.701 173.004 281.876C172.064 283.286 171.594 283.755 171.594 283.755C171.594 283.755 171.829 283.051 172.534 281.641C173.004 280.231 173.709 278.116 173.709 275.296C173.709 272.477 173.239 269.187 172.299 265.427C171.359 261.668 169.714 257.438 168.069 252.974C166.424 248.509 164.31 243.575 162.665 237.935C161.02 232.531 159.375 226.187 160.55 219.372C161.02 215.848 162.43 212.323 164.78 209.503C165.25 208.798 165.954 208.094 166.659 207.389C167.364 206.684 168.069 205.979 168.774 205.509L170.889 204.099L172.769 202.689C173.944 201.749 175.353 200.809 176.528 199.869C177.703 198.93 178.878 197.99 180.288 196.815C181.463 195.875 182.638 194.935 183.813 193.76C184.987 192.585 186.162 191.645 187.102 190.47C191.332 186.006 194.621 180.836 196.971 175.197C199.086 169.558 200.496 163.683 201.436 157.574C202.376 151.465 203.55 145.59 205.195 139.951C205.665 138.541 206.135 137.366 206.605 135.956L206.84 135.016C207.075 134.546 207.075 134.311 207.31 133.841C207.545 133.137 208.015 132.667 208.25 131.962C208.485 131.257 208.955 130.787 209.19 130.082C209.66 129.612 210.13 128.907 210.365 128.437C210.835 127.967 211.07 127.262 211.54 126.792C212.01 126.322 212.48 125.852 212.949 125.382C216.944 121.623 221.879 119.978 226.108 119.978C230.338 119.743 233.862 120.683 236.682 121.623C239.502 122.563 241.381 123.503 242.791 124.207C244.201 125.852 244.906 126.322 244.906 126.322Z" fill="#FDDEC0"/>
<path d="M177.238 85.67C137.997 109.872 166.194 164.857 125.543 187.414C84.8924 210.207 88.652 241.458 97.3461 264.251C100.401 272.24 108.86 276.705 118.494 279.054C115.439 267.306 113.089 250.622 117.554 234.409C117.554 234.409 114.499 261.666 123.663 279.994C128.598 280.934 133.767 281.169 138.467 281.404C137.292 276.705 136.352 270.83 137.057 264.251C137.057 264.251 138.702 272.71 142.226 281.404C150.92 281.404 157.5 280.699 157.5 280.699C173.243 261.901 134.707 218.901 163.844 203.862C206.609 182.01 196.741 159.922 208.489 135.72C220.238 111.517 242.091 127.965 242.091 127.965C245.85 81.6754 216.243 61.2326 177.238 85.67Z" fill="#FDDEC0"/>
<path d="M392.238 258.842C392.238 258.842 392.473 258.137 392.708 256.493C393.178 255.083 393.413 252.733 393.883 249.913C394.118 248.503 394.353 246.859 394.588 245.214C394.823 243.569 394.823 241.689 395.058 239.574C395.058 237.695 395.058 235.58 394.823 233.23C394.823 232.055 394.588 231.115 394.588 229.94C394.353 228.766 394.118 227.591 393.883 226.416C393.648 225.241 393.413 224.066 392.943 222.891C392.708 221.716 392.238 220.541 391.768 219.367C391.298 218.192 390.828 217.017 390.359 215.842C389.654 214.667 389.184 213.492 388.479 212.317C388.009 211.142 387.069 209.968 386.364 208.793C385.659 207.618 384.719 206.443 383.779 205.503C382.839 204.328 381.899 203.388 380.96 202.213C379.785 201.273 378.845 200.099 377.67 199.159C376.73 197.984 375.32 197.279 374.145 196.339C372.97 195.399 371.796 194.459 370.386 193.519C368.976 192.814 367.801 191.874 366.391 191.17C365.686 190.7 364.981 190.23 364.511 189.995L362.397 188.82C359.577 187.41 356.757 185.765 353.702 184.355C350.648 182.475 347.828 180.596 345.243 178.246C340.074 173.546 336.314 167.672 333.495 161.563C330.91 155.453 329.265 149.109 327.855 143C326.68 136.89 325.271 131.251 324.096 125.612C322.921 120.207 321.511 115.038 319.631 110.573C317.751 106.109 315.637 102.114 313.522 99.0594C311.172 95.7697 308.822 93.42 306.707 91.5402C304.593 89.6604 302.713 88.2505 301.538 87.5456C300.363 86.6057 299.658 86.1357 299.658 86.1357C299.658 86.1357 300.363 86.6057 301.773 87.3106C303.183 88.0155 305.063 89.1904 307.412 90.8352C309.762 92.4801 312.347 94.8298 315.167 98.1195C317.751 101.174 320.336 105.169 322.451 109.633C324.566 114.098 326.445 119.267 327.855 124.907C329.265 130.311 330.675 136.185 332.085 142.06C333.495 147.934 335.374 154.044 337.959 159.683C340.544 165.322 344.069 170.727 348.533 174.721C350.883 176.836 353.468 178.716 355.817 180.126C358.637 181.536 361.692 183.18 364.511 184.59C367.566 186 370.151 188.115 372.97 189.76C374.38 190.7 375.555 191.874 376.73 192.814C377.905 193.754 379.315 194.694 380.255 195.869C381.43 197.044 382.604 197.984 383.544 199.159C384.484 200.334 385.424 201.508 386.364 202.683C387.304 203.858 388.244 205.033 388.949 206.443C389.654 207.853 390.594 209.028 391.064 210.203C393.883 215.372 395.058 220.776 395.998 225.711C396.703 230.645 396.468 235.345 396.233 239.339C395.998 241.454 395.763 243.334 395.293 244.979C394.823 246.624 394.588 248.268 394.353 249.678C393.648 252.498 392.943 254.613 392.473 256.023C392.473 258.137 392.238 258.842 392.238 258.842Z" fill="#FDDEC0"/>
<path d="M236.215 126.318C236.215 126.318 236.92 125.849 238.33 125.144C239.739 124.439 241.619 123.264 244.439 122.559C247.259 121.619 250.783 120.914 255.013 120.914C259.242 121.149 264.177 122.559 268.171 126.318C268.641 126.788 269.111 127.258 269.581 127.728C270.051 128.198 270.286 128.903 270.756 129.373C271.226 129.843 271.461 130.548 271.931 131.018C272.401 131.488 272.636 132.193 272.871 132.898C273.106 133.603 273.576 134.073 273.811 134.778C274.046 135.248 274.046 135.248 274.281 135.952L274.516 136.892C274.986 138.302 275.456 139.477 275.926 140.887C277.805 146.526 278.745 152.401 279.685 158.51C280.625 164.619 281.8 170.494 284.15 176.133C286.265 181.773 289.789 186.942 294.019 191.407C294.959 192.581 296.133 193.521 297.308 194.696C298.483 195.871 299.658 196.811 300.833 197.751C302.008 198.691 303.183 199.866 304.593 200.806C305.767 201.745 307.177 202.685 308.352 203.625L310.232 205.035L312.347 206.445C313.052 206.915 313.757 207.62 314.462 208.325C315.166 209.03 315.871 209.735 316.341 210.44C318.691 213.259 320.101 217.019 320.571 220.308C321.511 227.358 319.866 233.467 318.456 238.871C316.811 244.276 314.696 249.21 313.052 253.91C311.407 258.374 309.762 262.604 308.822 266.364C307.882 270.123 307.177 273.413 307.412 276.233C307.412 279.052 308.117 281.167 308.587 282.577C309.292 283.987 309.527 284.692 309.527 284.692C309.527 284.692 309.057 283.987 308.117 282.812C307.412 281.402 306.472 279.287 306.002 276.467C305.532 273.648 305.532 269.888 306.237 265.894C306.942 261.899 307.882 257.435 309.292 252.735C310.702 248.036 312.112 242.866 313.522 237.697C314.697 232.527 315.636 226.653 314.697 221.483C314.227 218.899 313.052 216.549 311.407 214.434C309.762 212.554 307.647 211.144 304.828 209.03C303.418 208.09 302.008 207.15 300.833 206.21C299.423 205.27 298.248 204.095 296.838 203.155C295.429 202.215 294.254 201.041 293.079 199.866C291.904 198.691 290.494 197.516 289.319 196.341C284.62 191.407 280.86 185.297 278.275 178.953C275.691 172.609 274.751 166.029 274.046 159.92C273.341 153.811 272.636 147.936 271.226 143.002C270.991 141.592 270.521 140.417 270.051 139.007L269.816 138.067L269.581 136.657C269.346 136.187 269.111 135.483 268.876 135.013C268.641 134.543 268.406 133.838 268.171 133.368C267.936 132.898 267.467 132.428 267.232 131.958C266.997 131.488 266.527 131.018 266.292 130.548C265.822 130.078 265.587 129.608 265.117 129.373C262.297 126.084 258.302 124.439 254.543 123.734C250.783 123.264 247.494 123.499 244.674 123.969C241.854 124.439 239.739 125.144 238.33 125.614C236.92 125.849 236.215 126.318 236.215 126.318Z" fill="#FDDEC0"/>
<path d="M355.585 187.412C314.934 164.619 343.131 109.87 303.891 85.6675C264.65 61.4651 238.098 81.673 242.092 127.963C242.092 127.963 260.89 111.515 272.639 135.717C284.388 159.92 274.519 182.007 317.284 203.86C346.186 218.663 307.885 261.899 323.629 280.697C323.629 280.697 336.082 282.107 349.711 281.167C352.295 274.587 355.115 265.188 356.525 252.5C356.525 252.5 358.875 266.128 354.645 280.462C358.17 279.992 361.694 279.287 365.219 278.347C366.629 274.587 367.569 270.593 368.274 266.598C368.274 266.598 368.509 271.298 368.039 277.642C375.558 275.057 381.667 270.828 384.017 264.248C392.476 241.456 396.236 210.204 355.585 187.412Z" fill="#FDDEC0"/>
</svg>
