<svg width="480" height="480" viewBox="0 0 480 480" fill="none" xmlns="http://www.w3.org/2000/svg">
<rect width="480" height="480" fill="white"/>
<rect width="480" height="480" fill="white"/>
<g clip-path="url(#clip0)">
<path d="M205.38 299.073C205.38 299.073 168.616 322.38 188.56 357.46C208.504 392.78 347.148 383.169 275.783 299.073C217.154 229.634 205.38 299.073 205.38 299.073Z" fill="#76413B"/>
<path d="M340.42 209.451C340.42 209.451 324.321 228.673 327.685 247.895C332.25 275.526 289.96 312.048 246.709 300.034C203.457 288.02 249.832 207.048 249.832 207.048L340.42 209.451Z" fill="#76413B"/>
<path d="M138.1 209.451C138.1 209.451 154.199 228.673 150.835 247.895C146.51 275.526 188.559 312.048 231.811 300.034C275.062 288.02 228.687 207.048 228.687 207.048L138.1 209.451Z" fill="#76413B"/>
<path d="M248.149 270C268.092 270.24 288.036 266.636 305.817 257.506C315.188 252.7 321.676 245.972 327.443 238.524C329.365 222.906 340.418 209.451 340.418 209.451L249.831 207.048C249.831 207.048 230.127 241.407 228.445 268.558C234.933 269.279 241.661 269.76 248.149 270Z" fill="#965450"/>
<path d="M151.315 244.531C180.87 260.149 215.231 269.519 248.15 270C248.871 270 249.592 270 250.313 270C249.111 242.608 228.687 207.048 228.687 207.048L138.1 209.451C138.1 209.451 152.276 226.51 151.315 244.531Z" fill="#965450"/>
<path d="M287.556 339.198C267.131 328.146 272.658 274.324 272.658 274.324L242.382 276.246V274.324L239.018 275.285L235.654 274.324V276.246L205.138 274.324C205.138 274.324 210.664 328.146 190.24 339.198C169.816 350.251 44.6275 355.777 57.6029 479.999H235.654H242.142H420.193C433.168 355.777 307.98 350.251 287.556 339.198Z" fill="#FFAC9D"/>
<path d="M201.053 325.262C225.322 321.658 249.831 317.814 274.099 313.97C270.735 295.468 272.898 274.324 272.898 274.324L242.382 276.246V274.324L239.018 275.285L235.654 274.324V276.246L205.138 274.324C205.138 274.324 208.502 305.56 201.053 325.262Z" fill="#CC887F"/>
<path d="M329.126 348.809C311.345 364.907 284.913 376.2 254.878 379.083L238.779 437.23L230.128 379.564C197.45 377.642 168.856 366.108 149.873 348.809C107.583 362.264 45.8298 391.818 54.9606 479.999H236.136H242.863H424.038C433.169 391.818 371.416 362.264 329.126 348.809Z" fill="#5D8584"/>
<path d="M232.292 394.221L230.129 379.324C197.45 377.402 168.856 365.869 149.874 348.569C142.665 350.972 134.976 353.615 127.527 356.979C142.425 377.643 183.273 392.78 232.292 394.221Z" fill="#78A8A5"/>
<path d="M354.116 358.421C345.706 354.336 337.055 351.453 329.126 348.81C311.345 364.908 284.913 376.201 254.878 379.084L250.553 394.462C298.61 392.54 338.497 378.123 354.116 358.421Z" fill="#78A8A5"/>
<path d="M234.934 451.406C234.934 455.011 238.057 458.134 241.662 458.134C245.266 458.134 248.39 455.011 248.39 451.406C248.39 447.802 245.266 444.679 241.662 444.679C238.057 444.679 234.934 447.562 234.934 451.406Z" fill="#78A8A5"/>
<path d="M179.429 195.755C173.422 177.014 159.245 181.339 157.803 181.819C156.362 182.06 141.704 184.222 144.347 203.684C146.99 223.147 158.284 233.719 168.856 230.595C179.669 228.913 185.436 214.497 179.429 195.755Z" fill="#CC887F"/>
<path d="M299.33 195.755C305.338 177.014 319.514 181.339 320.956 181.819C322.398 182.06 337.055 184.222 334.412 203.684C331.769 223.147 320.475 233.719 309.903 230.595C298.85 228.913 293.323 214.497 299.33 195.755Z" fill="#CC887F"/>
<path d="M164.771 167.403C172.22 85.7095 234.213 90.2747 240.22 90.9955C245.987 90.2747 308.221 85.7095 315.67 167.403C323.119 249.577 286.595 303.158 240.22 300.275C193.845 303.398 157.322 249.577 164.771 167.403Z" fill="#FFAC9D"/>
<path d="M162.125 183.021C162.125 183.021 158.041 290.424 221.476 302.437C284.671 314.451 324.077 261.591 318.311 177.494L310.381 176.774C310.381 176.774 305.095 261.591 285.872 262.552C266.649 263.272 295.003 236.121 258.239 234.44C221.476 232.758 203.214 220.504 200.09 251.739C198.168 272.403 172.698 236.602 169.334 181.339C166.21 126.076 162.125 183.021 162.125 183.021Z" fill="#965450"/>
<path d="M172.46 206.087C171.019 198.398 169.817 190.229 169.337 181.339C166.213 126.076 162.128 183.021 162.128 183.021C162.128 183.021 161.647 194.554 163.329 210.652C166.453 209.211 169.577 207.529 172.46 206.087Z" fill="#76413B"/>
<path d="M318.553 206.808C319.274 197.437 319.274 187.826 318.553 177.494L310.624 176.773C310.624 176.773 309.903 188.307 307.98 202.963C311.344 204.165 314.949 205.366 318.553 206.808Z" fill="#76413B"/>
<path d="M250.793 177.014C251.754 180.858 252.715 184.462 253.436 188.307C254.157 192.151 254.637 195.995 255.358 199.599C255.599 201.522 255.839 203.444 256.079 205.366C256.319 207.288 256.56 209.21 256.8 211.133C257.281 214.977 257.521 218.821 257.761 222.666V223.627L257.04 224.107C254.637 225.549 251.994 226.991 249.591 228.432C246.948 229.874 244.545 231.316 241.902 232.517C244.065 230.595 246.227 228.673 248.39 226.751C250.553 224.828 252.955 223.146 255.118 221.464L254.397 222.906C253.676 219.062 253.196 215.217 252.715 211.613C252.475 209.691 252.235 207.769 251.994 205.847C251.754 203.924 251.514 202.002 251.514 200.08C251.273 196.236 251.033 192.391 250.793 188.547C250.793 184.702 250.793 180.858 250.793 177.014Z" fill="#CC887F"/>
<path d="M298.852 171.006C298.852 171.006 298.131 170.766 297.17 170.045C296.689 169.805 295.968 169.324 295.248 168.844C294.527 168.363 293.566 167.883 292.845 167.402C291.884 166.922 290.922 166.441 289.961 165.961C289.481 165.72 289 165.48 288.279 165.24C287.799 164.999 287.078 164.759 286.597 164.519C285.396 164.038 284.195 163.798 283.233 163.558C282.032 163.317 280.831 163.077 279.629 163.077H277.467C276.986 163.077 276.265 163.077 275.785 163.317C274.583 163.317 273.622 163.798 272.421 163.798C271.219 164.038 270.258 164.519 269.297 164.759L268.576 164.999L267.855 165.48C267.375 165.72 266.894 165.961 266.413 166.201C265.452 166.681 264.491 166.922 264.011 167.402C263.29 167.883 262.569 168.123 262.088 168.604C260.887 169.324 260.166 169.565 260.166 169.565C260.166 169.565 260.406 168.844 261.127 167.642C261.367 167.162 261.848 166.441 262.329 165.48C262.809 164.759 263.53 163.798 264.251 163.077C264.972 162.356 265.933 161.155 266.894 160.434C268.095 159.713 269.297 158.752 270.498 158.272C271.219 158.031 271.94 157.791 272.661 157.551C273.382 157.311 274.103 157.07 275.064 157.07C275.785 157.07 276.746 156.83 277.467 156.83C278.187 156.83 279.149 156.83 279.869 156.83C281.551 156.83 282.993 157.311 284.675 157.791C285.396 158.031 286.117 158.272 286.838 158.752C287.559 158.993 288.279 159.473 288.76 159.713C289.481 160.194 289.961 160.434 290.682 160.915C291.163 161.395 291.643 161.876 292.364 162.116C293.325 162.837 294.286 163.798 295.007 164.759C296.449 166.441 297.65 168.123 298.131 169.084C298.612 170.285 298.852 171.006 298.852 171.006Z" fill="#352C38"/>
<path d="M221.479 171.006C221.479 171.006 220.758 170.766 219.797 170.045C219.316 169.805 218.595 169.324 217.875 168.844C217.154 168.363 216.193 167.883 215.472 167.402C214.511 166.922 213.549 166.441 212.588 165.961C212.108 165.72 211.627 165.48 210.906 165.24C210.426 164.999 209.705 164.759 209.224 164.519C208.023 164.038 206.822 163.798 205.86 163.558C204.659 163.317 203.458 163.077 202.256 163.077L200.574 162.837C200.094 162.837 199.373 162.837 198.892 163.077C197.691 163.077 196.73 163.558 195.528 163.558C194.327 163.798 193.366 164.279 192.404 164.519L190.963 164.999L190.242 165.48C189.761 165.72 189.281 165.961 188.8 166.201C187.839 166.681 186.878 166.922 186.397 167.402C185.676 167.883 184.956 168.123 184.475 168.604C183.274 169.324 182.553 169.565 182.553 169.565C182.553 169.565 182.793 168.844 183.514 167.642C183.754 167.162 184.235 166.441 184.715 165.48C185.196 164.759 185.917 163.798 186.638 163.077C187.358 162.356 188.32 161.155 189.281 160.434C190.482 159.713 191.684 158.752 192.885 158.272C193.606 158.031 194.327 157.791 195.048 157.551C195.768 157.311 196.489 157.07 197.45 157.07C198.171 157.07 199.132 156.83 199.853 156.83C200.574 156.83 201.535 156.83 202.256 156.83C203.938 156.83 205.38 157.311 207.062 157.791C207.783 158.031 208.504 158.272 209.224 158.752C209.945 158.993 210.666 159.473 211.147 159.713C211.868 160.194 212.348 160.434 213.069 160.915C213.549 161.395 214.03 161.876 214.751 162.116C215.712 162.837 216.673 163.798 217.394 164.759C218.836 166.441 220.037 168.123 220.518 169.084C221.239 170.285 221.479 171.006 221.479 171.006Z" fill="#352C38"/>
<path d="M218.837 200.561C218.837 200.561 218.596 199.84 218.356 198.879C217.876 197.677 217.395 196.236 216.434 194.554C215.473 192.872 214.271 190.95 212.349 189.748C211.388 189.027 210.427 188.547 209.225 188.307C208.745 188.066 208.024 187.826 207.543 187.826C207.063 187.826 206.342 187.586 205.861 187.586C205.381 187.586 204.66 187.586 204.179 187.586C203.459 187.586 202.738 187.826 202.257 187.826C201.296 188.066 200.095 188.547 199.374 189.268C198.413 189.989 197.692 190.709 197.211 191.67C196.731 192.632 196.25 193.352 195.769 194.313C195.049 195.995 194.808 197.677 194.568 198.879C194.328 200.08 194.328 200.801 194.328 200.801C194.328 200.801 194.087 200.08 194.087 198.879C194.087 197.677 193.847 195.995 194.328 193.833C194.568 192.872 194.808 191.67 195.529 190.469C196.25 189.268 196.971 188.066 197.932 187.346C198.893 186.384 200.335 185.664 201.777 185.183C202.497 184.943 203.218 184.943 203.699 184.702C204.66 184.462 205.141 184.702 205.861 184.702C206.582 184.702 207.303 184.702 208.024 184.943C208.745 184.943 209.466 185.183 210.186 185.423C210.907 185.664 211.628 185.904 212.109 186.384C212.83 186.625 213.31 187.105 213.791 187.586C215.953 189.508 217.155 191.67 217.635 193.833C218.356 195.755 218.596 197.677 218.596 198.638C219.077 199.84 218.837 200.561 218.837 200.561Z" fill="#352C38"/>
<path d="M288.518 199.358C288.518 199.358 288.278 198.638 288.038 197.677C287.557 196.475 287.077 195.034 286.116 193.352C285.154 191.67 283.953 189.747 282.031 188.546C281.07 187.825 280.108 187.345 278.907 187.104C278.426 186.864 277.706 186.624 277.225 186.624C276.744 186.624 276.024 186.384 275.543 186.384C275.062 186.384 274.342 186.384 273.861 186.384C273.14 186.384 272.419 186.624 271.939 186.624C270.978 186.864 269.776 187.345 269.055 188.066C268.094 188.786 267.373 189.507 266.893 190.468C266.412 191.429 265.932 192.15 265.451 193.111C264.73 194.793 264.49 196.475 264.25 197.677C264.009 198.878 264.009 199.599 264.009 199.599C264.009 199.599 263.769 198.878 263.769 197.677C263.769 196.475 263.529 194.793 264.009 192.631C264.25 191.67 264.49 190.468 265.211 189.267C265.932 188.066 266.652 186.864 267.614 186.143C268.575 185.182 270.016 184.461 271.458 183.981C272.179 183.741 272.9 183.741 273.38 183.5C274.342 183.26 274.822 183.5 275.543 183.5C276.264 183.5 276.985 183.5 277.706 183.741C278.426 183.741 279.147 183.981 279.868 184.221C280.589 184.461 281.31 184.702 281.79 185.182C282.511 185.423 282.992 185.903 283.472 186.384C285.635 188.306 286.836 190.468 287.317 192.631C288.038 194.553 288.278 196.475 288.278 197.436C288.518 198.878 288.518 199.358 288.518 199.358Z" fill="#352C38"/>
<path d="M271.938 247.173C257.04 261.589 232.051 260.628 213.068 247.894L271.938 247.173Z" fill="white"/>
<path d="M241.183 103.009C241.183 103.009 196.25 95.0796 189.041 122.951C181.832 151.064 192.165 188.546 159.486 183.02C159.486 183.02 135.698 187.826 150.836 225.549C150.836 225.549 105.662 182.299 132.093 151.064C153.719 125.594 144.829 70.0911 197.691 61.4412C250.794 52.551 241.183 92.4366 241.183 103.009Z" fill="#76413B"/>
<path d="M241.183 103.009C241.183 103.009 196.25 95.0796 189.041 122.951C181.832 151.064 192.165 188.546 159.486 183.02C159.486 183.02 135.698 187.826 150.836 225.549C150.836 225.549 105.662 182.299 132.093 151.064C153.719 125.594 144.829 70.0911 197.691 61.4412C250.794 52.551 241.183 92.4366 241.183 103.009Z" fill="#965450"/>
<path d="M237.099 103.009C237.099 103.009 282.032 95.0796 289.241 122.951C296.449 151.064 286.117 188.546 318.796 183.02C318.796 183.02 342.584 187.826 327.446 225.549C327.446 225.549 372.62 182.299 346.188 151.064C324.563 125.594 333.453 70.0911 280.59 61.4412C227.487 52.551 237.099 92.4366 237.099 103.009Z" fill="#965450"/>
<path d="M236.379 96.2803C239.503 96.2803 242.386 96.2803 245.51 96.5205C248.633 96.7608 251.517 97.0011 254.641 97.7219C260.648 98.683 266.655 100.365 272.181 103.008C277.708 105.651 283.234 109.495 286.839 115.262C288.521 118.145 289.722 121.029 290.443 124.392C291.164 127.516 291.404 130.399 291.404 133.523C291.644 139.53 291.644 145.537 291.404 151.303C291.164 157.07 290.924 163.077 291.164 168.603C291.404 171.486 291.644 174.129 292.606 176.772C293.326 179.415 294.768 181.818 296.45 183.74C298.372 185.662 300.775 186.864 303.659 187.344C306.302 188.065 309.185 188.065 312.069 188.065C313.991 188.305 315.673 188.786 317.355 189.507C319.037 190.228 320.719 190.948 321.92 192.15C323.362 193.351 324.563 194.553 325.284 196.235C326.005 197.916 326.245 199.598 326.245 201.28C326.245 199.598 325.765 197.916 325.044 196.235C324.323 194.793 322.881 193.591 321.68 192.63C320.238 191.669 318.797 190.948 317.115 190.468C315.433 189.987 313.751 189.747 312.069 189.507H312.309C309.426 189.747 306.302 189.987 303.178 189.507C300.054 189.026 297.171 187.825 294.528 185.662C292.125 183.5 290.443 180.617 289.242 177.733C288.28 174.85 287.56 171.727 287.319 168.843C286.598 162.836 286.598 156.829 286.598 151.063C286.598 145.296 286.598 139.289 286.118 133.763C285.878 130.88 285.637 127.997 284.916 125.594C284.196 122.951 283.234 120.548 281.793 118.626C278.909 114.301 274.344 111.177 269.538 109.015C264.492 106.852 258.966 105.411 253.439 104.45C250.556 103.969 247.913 103.729 245.029 103.489C242.146 103.248 239.262 103.248 236.619 103.248L236.379 96.2803Z" fill="#965450"/>
</g>
<defs>
<clipPath id="clip0">
<rect width="371" height="420" fill="white" transform="translate(54 60)"/>
</clipPath>
</defs>
</svg>
