<svg width="480" height="480" viewBox="0 0 480 480" fill="none" xmlns="http://www.w3.org/2000/svg">
<rect width="480" height="480" fill="white"/>
<rect width="480" height="480" fill="white"/>
<g clip-path="url(#clip0)">
<path d="M286.17 346.602C266.82 336.131 272.056 285.139 272.056 285.139L243.145 286.96V285.139L239.958 286.049L236.771 285.139V286.96L207.861 285.139C207.861 285.139 213.096 336.131 193.747 346.602C174.397 357.074 60.3484 362.309 72.6411 480H236.771H242.917H407.048C419.568 362.309 305.519 357.074 286.17 346.602Z" fill="#965450"/>
<path d="M203.99 333.399C226.982 329.984 250.202 326.342 273.193 322.7C270.006 305.171 272.055 285.139 272.055 285.139L243.145 286.96V285.139L239.958 286.049L236.771 285.139V286.96L207.86 285.139C208.088 285.139 211.275 314.732 203.99 333.399Z" fill="#76413B"/>
<path d="M310.527 351.383C300.056 378.472 272.511 397.822 240.186 397.822C207.861 397.822 180.316 378.472 169.845 351.383C130.007 362.31 60.121 385.757 69.9096 480.001H236.999H243.373H410.462C420.251 385.757 350.137 362.31 310.527 351.383Z" fill="#FDEDEE"/>
<path opacity="0.1" d="M383.145 388.261C340.575 415.805 289.128 426.732 241.096 441.984C196.25 456.326 150.722 468.618 105.193 480.001H410.234C415.014 436.066 402.039 407.383 383.145 388.261Z" fill="#352C38"/>
<path d="M317.129 353.432V480.001H410.235C419.568 390.765 357.649 365.041 317.129 353.432Z" fill="#6F96BD"/>
<path d="M162.332 353.432C121.812 365.269 60.5758 391.22 69.9091 480.001H162.332V353.432Z" fill="#6F96BD"/>
<path d="M163.471 353.431V480C163.471 480 116.804 400.553 119.081 373.236C121.357 345.919 158.918 344.098 163.471 353.431Z" fill="#88BBE5"/>
<path d="M314.854 353.431V480.001C314.854 480.001 361.52 400.553 359.244 373.236C356.967 345.692 319.406 344.098 314.854 353.431Z" fill="#88BBE5"/>
<path d="M183.502 210.699C177.811 192.943 164.38 197.041 163.014 197.496C161.648 197.724 147.762 199.772 150.266 218.211C152.77 236.65 163.469 246.667 173.486 243.707C183.957 242.114 189.421 228.455 183.502 210.699Z" fill="#76413B"/>
<path d="M297.096 210.699C302.787 192.943 316.218 197.041 317.584 197.496C318.95 197.724 332.836 199.772 330.332 218.211C327.828 236.65 317.128 246.667 307.112 243.707C296.868 242.114 291.405 228.455 297.096 210.699Z" fill="#76413B"/>
<path d="M169.845 183.838C176.902 106.439 235.634 110.765 241.325 111.447C246.788 110.765 305.747 106.439 312.804 183.838C319.861 261.691 285.26 312.456 241.325 309.724C197.39 312.456 162.788 261.691 169.845 183.838Z" fill="#965450"/>
<path d="M251.34 192.942C252.25 196.585 253.161 199.999 253.844 203.642C254.527 207.284 254.982 210.926 255.665 214.341C255.893 216.162 256.12 217.983 256.348 219.804C256.576 221.625 256.803 223.446 257.031 225.268C257.486 228.91 257.714 232.552 257.941 236.194V237.105L257.031 237.56C254.754 238.926 252.25 240.292 249.974 241.658C247.47 243.024 245.194 244.39 242.689 245.528C244.738 243.707 246.787 241.885 248.836 240.064C250.885 238.243 253.161 236.65 255.21 235.056L254.527 236.422C253.844 232.78 253.389 229.138 252.933 225.723C252.706 223.902 252.478 222.081 252.25 220.259C252.023 218.438 251.795 216.617 251.795 214.796C251.568 211.154 251.34 207.511 251.112 203.869C251.112 200.227 251.112 196.585 251.34 192.942Z" fill="#76413B"/>
<path d="M271.145 259.413C257.032 273.072 233.357 272.161 215.373 260.096L271.145 259.413Z" fill="white"/>
<path d="M296.642 187.251C296.642 187.251 295.959 187.024 295.048 186.341C294.593 186.113 293.91 185.658 293.227 185.202C292.544 184.747 291.634 184.292 290.951 183.837C290.04 183.381 289.13 182.926 288.219 182.471C287.764 182.243 287.308 182.015 286.625 181.788C286.17 181.56 285.487 181.333 285.032 181.105C283.894 180.65 282.756 180.422 281.845 180.194C280.707 179.967 279.569 179.739 278.43 179.739L276.837 179.511C276.382 179.511 275.699 179.511 275.243 179.739C274.105 179.739 273.195 180.194 272.056 180.194C270.918 180.422 270.008 180.877 269.097 181.105L268.414 181.333L267.048 182.015C266.593 182.243 266.138 182.471 265.682 182.698C264.772 183.154 263.861 183.381 263.406 183.837C262.723 184.292 262.04 184.52 261.585 184.975C260.447 185.658 259.764 185.885 259.764 185.885C259.764 185.885 259.991 185.202 260.674 184.064C260.902 183.609 261.357 182.926 261.812 182.015C262.268 181.333 262.951 180.422 263.634 179.739C264.317 179.056 265.227 177.918 266.138 177.235C267.276 176.552 268.414 175.641 269.552 175.186C270.235 174.959 270.918 174.731 271.601 174.503C272.284 174.276 272.967 174.048 273.877 174.048C274.56 174.048 275.471 173.82 276.154 173.82C276.837 173.82 277.747 173.82 278.43 173.82C280.024 173.82 281.39 174.276 282.983 174.731C283.666 174.959 284.349 175.186 285.032 175.641C285.715 175.869 286.398 176.324 286.853 176.552C287.536 177.007 287.991 177.235 288.674 177.69C289.13 178.146 289.585 178.601 290.268 178.828C291.178 179.511 292.089 180.422 292.772 181.333C294.138 182.926 295.276 184.519 295.731 185.43C296.414 186.568 296.642 187.251 296.642 187.251Z" fill="#352C38"/>
<path d="M223.341 187.251C223.341 187.251 222.658 187.024 221.747 186.341C221.292 186.113 220.609 185.658 219.926 185.202C219.243 184.747 218.333 184.292 217.65 183.837C216.739 183.381 215.829 182.926 214.918 182.471C214.463 182.243 214.007 182.015 213.324 181.788C212.869 181.56 212.186 181.333 211.731 181.105C210.593 180.65 209.455 180.422 208.544 180.194C207.406 179.967 206.268 179.739 205.129 179.739H203.308C202.853 179.739 202.17 179.739 201.715 179.967C200.577 179.967 199.666 180.422 198.528 180.422C197.39 180.65 196.479 181.105 195.568 181.333L194.885 181.56L194.203 182.015C193.747 182.243 193.292 182.471 192.837 182.698C191.926 183.154 191.016 183.381 190.56 183.837C189.877 184.292 189.194 184.52 188.739 184.975C187.601 185.658 186.918 185.885 186.918 185.885C186.918 185.885 187.146 185.202 187.829 184.064C188.056 183.609 188.511 182.926 188.967 182.015C189.422 181.333 190.105 180.422 190.788 179.739C191.471 179.056 192.381 177.918 193.292 177.235C194.43 176.552 195.568 175.641 196.707 175.186C197.39 174.959 198.072 174.731 198.755 174.503C199.438 174.276 200.121 174.048 201.032 174.048C201.715 174.048 202.625 173.82 203.308 173.82C203.991 173.82 204.902 173.82 205.585 173.82C207.178 173.82 208.544 174.276 210.137 174.731C210.82 174.959 211.503 175.186 212.186 175.641C212.869 175.869 213.552 176.324 214.007 176.552C214.69 177.007 215.146 177.235 215.829 177.69C216.284 178.146 216.739 178.601 217.422 178.828C218.333 179.511 219.243 180.422 219.926 181.333C221.292 182.926 222.43 184.519 222.885 185.43C223.113 186.568 223.341 187.251 223.341 187.251Z" fill="#352C38"/>
<path d="M221.065 215.252C221.065 215.252 220.837 214.569 220.609 213.658C220.154 212.52 219.699 211.154 218.788 209.56C217.878 207.967 216.739 206.146 214.918 205.008C214.008 204.325 213.097 203.869 211.959 203.642C211.504 203.414 210.821 203.187 210.365 203.187C209.91 203.187 209.227 202.959 208.772 202.959C208.317 202.959 207.634 202.959 207.178 202.959C206.496 202.959 205.813 203.187 205.357 203.187C204.447 203.414 203.309 203.869 202.626 204.552C201.715 205.235 201.032 205.918 200.577 206.829C200.122 207.739 199.666 208.422 199.211 209.333C198.528 210.926 198.3 212.52 198.073 213.658C197.845 214.796 197.845 215.479 197.845 215.479C197.845 215.479 197.617 214.796 197.617 213.658C197.617 212.52 197.39 210.926 197.845 208.878C198.073 207.967 198.3 206.829 198.983 205.691C199.666 204.552 200.349 203.414 201.26 202.731C202.17 201.821 203.536 201.138 204.902 200.682C205.585 200.455 206.268 200.455 206.723 200.227C207.634 200 208.089 200.227 208.772 200.227C209.455 200.227 210.138 200.227 210.821 200.455C211.504 200.455 212.187 200.682 212.869 200.91C213.552 201.138 214.235 201.365 214.691 201.821C215.374 202.048 215.829 202.504 216.284 202.959C218.333 204.78 219.471 206.829 219.926 208.878C220.609 210.699 220.837 212.52 220.837 213.43C221.065 214.569 221.065 215.252 221.065 215.252Z" fill="#352C38"/>
<path d="M286.852 214.113C286.852 214.113 286.624 213.43 286.396 212.519C285.941 211.381 285.486 210.015 284.575 208.422C283.665 206.828 282.527 205.007 280.705 203.869C279.795 203.186 278.884 202.731 277.746 202.503C277.291 202.275 276.608 202.048 276.153 202.048C275.697 202.048 275.014 201.82 274.559 201.82C274.104 201.82 273.421 201.82 272.966 201.82C272.283 201.82 271.6 202.048 271.144 202.048C270.234 202.275 269.096 202.731 268.413 203.414C267.502 204.097 266.819 204.78 266.364 205.69C265.909 206.601 265.453 207.284 264.998 208.194C264.315 209.788 264.087 211.381 263.86 212.519C263.632 213.658 263.632 214.341 263.632 214.341C263.632 214.341 263.405 213.658 263.405 212.519C263.405 211.381 263.177 209.788 263.632 207.739C263.86 206.828 264.087 205.69 264.77 204.552C265.453 203.414 266.136 202.275 267.047 201.593C267.957 200.682 269.323 199.999 270.689 199.544C271.372 199.316 272.055 199.316 272.51 199.088C273.421 198.861 273.876 199.088 274.559 199.088C275.242 199.088 275.925 199.088 276.608 199.316C277.291 199.316 277.974 199.544 278.657 199.771C279.34 199.999 280.022 200.227 280.478 200.682C281.161 200.91 281.616 201.365 282.071 201.82C284.12 203.641 285.258 205.69 285.714 207.739C286.396 209.56 286.624 211.381 286.624 212.292C287.079 213.43 286.852 214.113 286.852 214.113Z" fill="#352C38"/>
<path d="M315.763 124.195C311.893 108.26 302.332 104.39 297.779 103.252C295.048 62.5039 185.779 54.9917 184.414 62.7315C182.82 71.1543 223.113 84.8128 223.113 84.8128C223.113 84.8128 150.95 65.9185 154.82 82.5364C158.007 96.1949 186.918 94.6014 197.845 93.6909C182.592 95.512 130.69 103.935 154.137 127.382C155.958 129.203 158.235 131.024 160.284 132.39C158.007 161.528 166.658 229.821 166.658 229.821H172.804L170.527 182.699C182.365 180.423 187.601 152.423 189.422 140.13C209.227 140.358 229.259 133.756 236.771 130.797C232.218 132.845 225.162 137.626 232.901 144.683C240.869 151.967 268.869 143.089 282.983 137.853C285.487 149.008 293.91 179.967 306.43 182.471L304.153 229.593H310.3C310.3 229.593 320.999 145.366 315.763 124.195Z" fill="#FDDEC0"/>
<path d="M315.764 124.196C311.894 108.261 302.333 104.391 297.78 103.253C297.325 95.7406 293.227 89.3666 286.853 84.1309C283.439 111.903 263.179 135.35 237.455 146.732C248.61 149.464 270.918 142.18 283.211 137.854C285.715 149.009 294.138 179.968 306.658 182.472L304.382 229.594H310.528C310.301 229.594 321 145.367 315.764 124.196Z" fill="#D3B9A3"/>
</g>
<defs>
<clipPath id="clip0">
<rect width="342.146" height="420" fill="white" transform="translate(69 60)"/>
</clipPath>
</defs>
</svg>
