<svg width="480" height="480" viewBox="0 0 480 480" fill="none" xmlns="http://www.w3.org/2000/svg">
<rect width="480" height="480" fill="white"/>
<rect width="480" height="480" fill="white"/>
<g clip-path="url(#clip0)">
<path d="M339.823 121.225C339.823 121.225 346.256 166.488 365.314 196.744C392.71 240.34 357.452 246.057 364.599 276.074C371.746 306.33 426.539 331.582 361.502 400.669C318.859 445.933 267.878 357.787 267.878 357.787L253.584 242.722L339.823 121.225Z" fill="#FC6A5A"/>
<path d="M318.859 194.836C311.95 189.595 305.28 184.354 298.848 178.875L253.346 235.097L267.64 336.822C267.64 336.822 280.266 356.118 298.133 370.412C302.898 365.171 313.856 389.232 320.05 387.088C340.776 379.941 377.94 340.157 351.02 310.14C318.621 274.167 357.214 233.191 318.859 194.836Z" fill="#D35450"/>
<path d="M287.175 340.396C266.926 329.438 272.405 276.074 272.405 276.074L242.15 277.98V276.074L238.815 277.027L235.479 276.074V277.98L205.224 276.074C205.224 276.074 210.703 329.438 190.454 340.396C170.204 351.355 50.8509 356.834 63.7153 479.999H235.479H241.912H413.676C426.778 356.834 307.425 351.355 287.175 340.396Z" fill="#F19C7C"/>
<path d="M201.174 326.579C225.235 323.006 249.535 319.194 273.596 315.382C270.261 297.038 272.405 276.074 272.405 276.074L242.149 277.98V276.074L238.814 277.027L235.479 276.074V277.98L205.224 276.074C205.462 276.074 208.559 307.044 201.174 326.579Z" fill="#C47D66"/>
<path d="M315.287 431.64C309.808 404.72 311.237 376.132 317.669 349.689C312.667 348.259 307.902 346.83 303.614 345.877C301.708 368.032 299.088 390.664 290.749 410.676C287.414 418.299 283.603 425.446 279.076 431.64H315.287Z" fill="#352C38"/>
<path d="M352.212 361.361C332.201 388.758 289.319 407.578 239.767 407.578C190.215 407.578 147.334 388.758 127.322 361.361C91.8261 378.037 56.8063 410.199 63.9532 480H236.432H242.864H415.343C422.728 410.199 387.708 378.037 352.212 361.361Z" fill="#5D8584"/>
<path d="M230.713 447.601C301.229 447.601 363.169 427.113 396.998 396.619C384.848 380.182 368.648 368.985 352.211 361.361C332.199 388.758 289.318 407.578 239.766 407.578C190.214 407.578 147.332 388.758 127.321 361.361C107.786 370.414 88.7278 384.231 76.3398 406.149C111.836 431.401 167.82 447.601 230.713 447.601Z" fill="#6F9B99"/>
<path d="M179.734 198.17C173.778 179.588 159.722 183.877 158.293 184.353C156.864 184.591 142.332 186.735 144.952 206.032C147.573 225.329 158.769 235.811 169.252 232.714C179.972 231.046 185.689 216.752 179.734 198.17Z" fill="#C47D66"/>
<path d="M298.611 198.17C304.567 179.588 318.622 183.877 320.052 184.353C321.481 184.591 336.013 186.735 333.393 206.032C330.772 225.329 319.575 235.811 309.093 232.714C298.373 231.046 292.655 216.752 298.611 198.17Z" fill="#C47D66"/>
<path d="M165.203 170.061C172.588 89.0626 234.052 93.589 240.007 94.3037C245.725 93.589 307.426 89.0626 314.812 170.061C322.197 251.536 285.986 304.661 240.007 301.802C194.267 304.661 157.818 251.536 165.203 170.061Z" fill="#F19C7C"/>
<path d="M195.693 104.786C195.693 104.786 203.317 166.25 264.304 178.161L249.295 140.521C249.295 140.521 254.536 186.261 315.285 183.879C315.285 183.879 337.44 194.123 329.579 217.946C329.579 217.946 351.496 199.602 343.158 168.632C334.82 137.662 354.355 135.756 323.385 90.016C295.75 49.9934 206.414 45.2287 195.693 104.786Z" fill="#FC6A5A"/>
<path d="M212.847 91.6848C212.847 91.6848 183.545 67.8617 161.151 94.7818C138.996 121.702 144.475 163.869 123.749 190.074C103.023 216.279 106.358 239.388 131.611 263.925C157.101 288.463 60.1417 311.571 91.1116 372.797C122.082 434.022 199.03 401.384 204.747 353.023C210.227 304.663 207.13 294.18 207.13 294.18C207.13 294.18 174.492 268.69 169.013 228.191C163.534 187.692 173.063 167.918 190.454 153.625C208.083 139.331 223.806 126.705 212.847 91.6848Z" fill="#FC6A5A"/>
<path d="M105.644 344.208C99.2113 331.82 98.2584 322.053 100.641 313.953C87.538 328.962 78.7235 347.544 91.3497 372.796C122.32 434.021 199.268 401.384 204.986 353.023C205.224 351.832 205.224 350.879 205.224 349.926C180.924 369.223 129.467 390.425 105.644 344.208Z" fill="#D35450"/>
<path d="M250.726 210.561C251.679 212.466 252.632 214.372 253.346 216.278C254.061 218.184 254.537 220.09 255.252 222.234C255.49 223.187 255.729 224.14 255.967 225.093C256.205 226.046 256.443 226.998 256.681 228.19C257.158 230.095 257.396 232.24 257.634 234.145V235.098L257.158 235.575C255.49 237.004 253.823 238.672 252.155 240.101C250.487 241.53 248.582 242.96 246.676 244.151C247.867 242.245 249.296 240.339 250.726 238.672C252.155 237.004 253.584 235.098 255.014 233.431L254.537 234.86C253.823 232.954 253.346 231.048 252.87 228.904C252.632 227.951 252.393 226.998 252.155 225.807C251.917 224.854 251.679 223.901 251.679 222.71C251.44 220.804 251.202 218.66 250.964 216.516C250.487 214.849 250.487 212.705 250.726 210.561Z" fill="#A06653"/>
<path d="M271.452 258.684C256.682 272.977 231.906 272.024 213.086 259.398L271.452 258.684Z" fill="white"/>
<path d="M298.134 183.165C298.134 183.165 297.42 182.927 296.467 182.212C295.99 181.974 295.276 181.497 294.561 181.021C293.846 180.544 292.893 180.068 292.179 179.592C291.226 179.115 290.273 178.639 289.32 178.162C288.843 177.924 288.367 177.686 287.652 177.447C287.176 177.209 286.461 176.971 285.985 176.733C284.793 176.256 283.602 176.018 282.649 175.78C281.458 175.542 280.267 175.303 279.076 175.303L277.408 175.065C276.932 175.065 276.217 175.065 275.741 175.303C274.55 175.303 273.597 175.78 272.405 175.78C271.214 176.018 270.261 176.495 269.308 176.733L267.879 177.209L267.164 177.686C266.688 177.924 266.211 178.162 265.735 178.4C264.782 178.877 263.829 179.115 263.353 179.592C262.638 180.068 261.923 180.306 261.447 180.783C260.256 181.497 259.541 181.736 259.541 181.736C259.541 181.736 259.779 181.021 260.494 179.83C260.732 179.353 261.209 178.639 261.685 177.686C262.162 176.971 262.876 176.018 263.591 175.303C264.306 174.589 265.259 173.398 266.211 172.683C267.403 171.968 268.594 171.015 269.785 170.539C270.5 170.301 271.214 170.062 271.929 169.824C272.644 169.586 273.358 169.348 274.311 169.348C275.026 169.348 275.979 169.109 276.694 169.109C277.408 169.109 278.361 169.109 279.076 169.109C280.743 169.109 282.173 169.586 283.84 170.062C284.555 170.301 285.27 170.539 285.985 171.015C286.699 171.253 287.414 171.73 287.89 171.968C288.605 172.445 289.082 172.683 289.796 173.159C290.273 173.636 290.749 174.112 291.464 174.35C292.417 175.065 293.37 176.018 294.084 176.971C295.514 178.639 296.705 180.306 297.181 181.259C297.896 182.45 298.134 183.165 298.134 183.165Z" fill="#352C38"/>
<path d="M221.424 183.165C221.424 183.165 220.709 182.927 219.756 182.212C219.279 181.974 218.565 181.497 217.85 181.021C217.135 180.544 216.182 180.068 215.468 179.591C214.515 179.115 213.562 178.639 212.609 178.162C212.133 177.924 211.656 177.686 210.941 177.447C210.465 177.209 209.75 176.971 209.274 176.733C208.083 176.256 206.891 176.018 205.939 175.78C204.747 175.542 203.556 175.303 202.365 175.303L200.698 175.065C200.221 175.065 199.506 175.065 199.03 175.303C197.839 175.303 196.886 175.78 195.695 175.78C194.504 176.018 193.551 176.494 192.598 176.733L191.883 176.971L191.168 177.447C190.692 177.686 190.215 177.924 189.739 178.162C188.786 178.639 187.833 178.877 187.357 179.353C186.642 179.83 185.927 180.068 185.451 180.544C184.26 181.259 183.545 181.497 183.545 181.497C183.545 181.497 183.783 180.783 184.498 179.591C184.736 179.115 185.213 178.4 185.689 177.447C186.165 176.733 186.88 175.78 187.595 175.065C188.31 174.35 189.262 173.159 190.215 172.445C191.407 171.73 192.598 170.777 193.789 170.3C194.504 170.062 195.218 169.824 195.933 169.586C196.648 169.348 197.362 169.109 198.315 169.109C199.03 169.109 199.983 168.871 200.698 168.871C201.412 168.871 202.365 168.871 203.08 168.871C204.747 168.871 206.177 169.348 207.844 169.824C208.559 170.062 209.274 170.3 209.988 170.777C210.703 171.015 211.418 171.492 211.894 171.73C212.609 172.206 213.085 172.445 213.8 172.921C214.277 173.397 214.753 173.874 215.468 174.112C216.421 174.827 217.374 175.78 218.088 176.733C219.518 178.4 220.709 180.068 221.185 181.021C221.185 182.45 221.424 183.165 221.424 183.165Z" fill="#352C38"/>
<path d="M219.041 212.468C219.041 212.468 218.802 211.753 218.564 210.8C218.088 209.609 217.611 208.18 216.658 206.512C215.705 204.844 214.514 202.939 212.608 201.747C211.655 201.033 210.703 200.556 209.511 200.318C209.035 200.08 208.32 199.842 207.844 199.842C207.367 199.842 206.653 199.603 206.176 199.603C205.7 199.603 204.985 199.603 204.509 199.603C203.794 199.603 203.079 199.842 202.603 199.842C201.65 200.08 200.459 200.556 199.744 201.271C198.791 201.986 198.076 202.7 197.6 203.653C197.123 204.606 196.647 205.321 196.171 206.274C195.456 207.941 195.218 209.609 194.979 210.8C194.741 211.991 194.741 212.706 194.741 212.706C194.741 212.706 194.503 211.991 194.503 210.8C194.503 209.609 194.265 207.941 194.741 205.797C194.979 204.844 195.218 203.653 195.932 202.462C196.647 201.271 197.362 200.08 198.315 199.365C199.268 198.412 200.697 197.697 202.126 197.221C202.841 196.983 203.556 196.983 204.032 196.745C204.985 196.506 205.461 196.745 206.176 196.745C206.891 196.745 207.606 196.745 208.32 196.983C209.035 196.983 209.75 197.221 210.464 197.459C211.179 197.697 211.894 197.936 212.37 198.412C213.085 198.65 213.561 199.127 214.038 199.603C216.182 201.509 217.373 203.653 217.849 205.797C218.564 207.703 218.802 209.609 218.802 210.562C219.041 211.753 219.041 212.468 219.041 212.468Z" fill="#352C38"/>
<path d="M287.888 211.276C287.888 211.276 287.65 210.562 287.412 209.609C286.935 208.418 286.459 206.988 285.506 205.321C284.553 203.653 283.362 201.747 281.456 200.556C280.503 199.841 279.55 199.365 278.359 199.127C277.883 198.888 277.168 198.65 276.691 198.65C276.215 198.65 275.5 198.412 275.024 198.412C274.547 198.412 273.833 198.412 273.356 198.412C272.642 198.412 271.927 198.65 271.45 198.65C270.497 198.888 269.306 199.365 268.592 200.08C267.639 200.794 266.924 201.509 266.448 202.462C265.971 203.415 265.495 204.129 265.018 205.082C264.304 206.75 264.065 208.418 263.827 209.609C263.589 210.8 263.589 211.515 263.589 211.515C263.589 211.515 263.351 210.8 263.351 209.609C263.351 208.418 263.112 206.75 263.589 204.606C263.827 203.653 264.065 202.462 264.78 201.271C265.495 200.08 266.209 198.888 267.162 198.174C268.115 197.221 269.545 196.506 270.974 196.03C271.689 195.791 272.403 195.791 272.88 195.553C273.833 195.315 274.309 195.553 275.024 195.553C275.739 195.553 276.453 195.553 277.168 195.791C277.883 195.791 278.597 196.03 279.312 196.268C280.027 196.506 280.741 196.744 281.218 197.221C281.933 197.459 282.409 197.935 282.885 198.412C285.03 200.318 286.221 202.462 286.697 204.606C287.412 206.512 287.65 208.418 287.65 209.371C287.888 210.562 287.888 211.276 287.888 211.276Z" fill="#352C38"/>
</g>
<defs>
<clipPath id="clip0">
<rect width="353.534" height="420" fill="white" transform="translate(63 60)"/>
</clipPath>
</defs>
</svg>
